<svg width="3718" height="1038" viewBox="0 0 3718 1038" fill="none" xmlns="http://www.w3.org/2000/svg">
<mask id="mask0_1_1496" style="mask-type:alpha" maskUnits="userSpaceOnUse" x="34" y="206" width="1000" height="627">
<path d="M573.394 341.354H328.019C240.503 354.479 173.394 429.978 173.394 521.151C173.394 621.566 254.797 702.969 355.212 702.969C399.855 702.969 440.739 686.878 472.384 660.181V606H280.465L389.556 478.727H623.899V622.589C611.28 667.693 589.22 709.043 559.878 744.238C529.468 773.906 493.596 797.372 454.457 813.383C420.98 825.597 384.834 832.262 347.131 832.262C174.193 832.262 34 692.068 34 519.13C34.0004 358.277 155.287 225.755 311.396 208.02H686.525L573.394 341.354Z" fill="#9C8189"/>
<path d="M624.838 478.728C621.585 492.339 619.858 506.543 619.858 521.151C619.858 621.567 701.261 702.97 801.677 702.97C836.771 702.97 869.541 693.024 897.327 675.802L1007.97 745.463C951.741 799.233 875.516 832.263 791.576 832.263C618.639 832.262 478.444 692.068 478.444 519.131C478.444 505.44 479.325 491.955 481.029 478.728H624.838Z" fill="#9C8189"/>
<path d="M1033.21 206.91C1032.8 206.604 1032.39 206.299 1031.98 206L914.974 339.333H803.697L803.7 339.345C803.027 339.337 802.352 339.333 801.677 339.333C725.566 339.333 660.377 386.1 633.28 452.465H485.559C493.014 418.083 506.114 385.805 523.844 356.652L581.475 355.495L694.889 221.212C725.339 211.336 757.835 206 791.576 206C792.924 206 794.27 206.01 795.614 206.027L795.616 206H1034L1033.21 206.91Z" fill="#9C8189"/>
</mask>
<g mask="url(#mask0_1_1496)">
</g>
<mask id="mask1_1_1496" style="mask-type:alpha" maskUnits="userSpaceOnUse" x="34" y="206" width="1000" height="627">
<path d="M573.394 341.354H328.019C240.503 354.479 173.394 429.978 173.394 521.151C173.394 621.566 254.797 702.969 355.212 702.969C399.855 702.969 440.739 686.878 472.384 660.181V606H280.465L389.556 478.727H623.899V622.589C611.28 667.693 589.22 709.043 559.878 744.238C529.468 773.906 493.596 797.372 454.457 813.383C420.98 825.597 384.834 832.262 347.131 832.262C174.193 832.262 34 692.068 34 519.13C34.0004 358.277 155.287 225.755 311.396 208.02H686.525L573.394 341.354Z" fill="#9C8189"/>
<path d="M624.838 478.728C621.585 492.339 619.858 506.543 619.858 521.151C619.858 621.567 701.261 702.97 801.677 702.97C836.771 702.97 869.541 693.024 897.327 675.802L1007.97 745.463C951.741 799.233 875.516 832.263 791.576 832.263C618.639 832.262 478.444 692.068 478.444 519.131C478.444 505.44 479.325 491.955 481.029 478.728H624.838Z" fill="#9C8189"/>
<path d="M1033.21 206.91C1032.8 206.604 1032.39 206.299 1031.98 206L914.974 339.333H803.697L803.7 339.345C803.027 339.337 802.352 339.333 801.677 339.333C725.566 339.333 660.377 386.1 633.28 452.465H485.559C493.014 418.083 506.114 385.805 523.844 356.652L581.475 355.495L694.889 221.212C725.339 211.336 757.835 206 791.576 206C792.924 206 794.27 206.01 795.614 206.027L795.616 206H1034L1033.21 206.91Z" fill="#9C8189"/>
</mask>
<g mask="url(#mask1_1_1496)">
<rect x="34" y="206" width="1000" height="626" fill="#153664"/>
<rect x="34" y="125" width="220" height="424" fill="#153664"/>
<rect x="214" y="406" width="418" height="482" fill="#80ABD8"/>
<circle cx="791" cy="519" r="313" fill="#CA252E"/>
<circle cx="901" cy="651" r="326" fill="url(#paint0_linear_1_1496)"/>
<path d="M246.5 465.5L273.5 632.5L472.703 660.587C414.276 778.099 303.802 842.781 218.799 806.171C129.44 767.685 102.072 631.836 157.671 502.743C166.835 481.465 177.682 461.698 189.808 443.695L246.5 465.5Z" fill="url(#paint1_radial_1_1496)"/>
<path d="M574.5 353H500.5L458 186L699.5 199.5L574.5 353Z" fill="#153664"/>
<path d="M895.288 359H787.122L725 169L1078 184.359L895.288 359Z" fill="#CA252E"/>
<path d="M780.5 340C639.663 342.777 559.747 372.196 474.5 463.5H717L759.5 430.5L780.5 340Z" fill="#FF7E7E"/>
</g>
<path d="M1276.7 701.4C1253 701.4 1230.95 697.05 1210.55 688.35C1190.45 679.65 1172.75 667.65 1157.45 652.35C1142.45 636.75 1130.75 618.45 1122.35 597.45C1113.95 576.45 1109.75 553.35 1109.75 528.15C1109.75 503.25 1113.8 480.3 1121.9 459.3C1130.3 438 1142 419.7 1157 404.4C1172 388.8 1189.55 376.8 1209.65 368.4C1229.75 359.7 1251.8 355.35 1275.8 355.35C1299.5 355.35 1320.65 359.4 1339.25 367.5C1358.15 375.6 1374.05 386.25 1386.95 399.45C1399.85 412.35 1409.15 426.45 1414.85 441.75L1367.6 464.7C1360.7 446.4 1349.3 431.7 1333.4 420.6C1317.5 409.2 1298.3 403.5 1275.8 403.5C1253.6 403.5 1233.95 408.75 1216.85 419.25C1199.75 429.75 1186.4 444.3 1176.8 462.9C1167.5 481.5 1162.85 503.25 1162.85 528.15C1162.85 553.05 1167.65 574.95 1177.25 593.85C1187.15 612.45 1200.65 627 1217.75 637.5C1234.85 647.7 1254.5 652.8 1276.7 652.8C1295.3 652.8 1312.25 649.05 1327.55 641.55C1343.15 633.75 1355.6 622.95 1364.9 609.15C1374.2 595.05 1378.85 578.7 1378.85 560.1V537.15L1402.7 558.75H1275.8V513.75H1431.5V545.25C1431.5 569.85 1427.3 591.9 1418.9 611.4C1410.5 630.6 1399.1 646.95 1384.7 660.45C1370.3 673.95 1353.8 684.15 1335.2 691.05C1316.6 697.95 1297.1 701.4 1276.7 701.4ZM1553.66 701.4C1537.16 701.4 1522.61 698.55 1510.01 692.85C1497.71 686.85 1488.11 678.75 1481.21 668.55C1474.31 658.05 1470.86 645.75 1470.86 631.65C1470.86 618.45 1473.71 606.6 1479.41 596.1C1485.41 585.6 1494.56 576.75 1506.86 569.55C1519.16 562.35 1534.61 557.25 1553.21 554.25L1637.81 540.3V580.35L1563.11 593.4C1549.61 595.8 1539.71 600.15 1533.41 606.45C1527.11 612.45 1523.96 620.25 1523.96 629.85C1523.96 639.15 1527.41 646.8 1534.31 652.8C1541.51 658.5 1550.66 661.35 1561.76 661.35C1575.56 661.35 1587.56 658.35 1597.76 652.35C1608.26 646.35 1616.36 638.4 1622.06 628.5C1627.76 618.3 1630.61 607.05 1630.61 594.75V532.2C1630.61 520.2 1626.11 510.45 1617.11 502.95C1608.41 495.15 1596.71 491.25 1582.01 491.25C1568.51 491.25 1556.66 494.85 1546.46 502.05C1536.56 508.95 1529.21 517.95 1524.41 529.05L1482.11 507.9C1486.61 495.9 1493.96 485.4 1504.16 476.4C1514.36 467.1 1526.21 459.9 1539.71 454.8C1553.51 449.7 1568.06 447.15 1583.36 447.15C1602.56 447.15 1619.51 450.75 1634.21 457.95C1649.21 465.15 1660.76 475.2 1668.86 488.1C1677.26 500.7 1681.46 515.4 1681.46 532.2V696H1632.86V651.9L1643.21 653.25C1637.51 663.15 1630.16 671.7 1621.16 678.9C1612.46 686.1 1602.41 691.65 1591.01 695.55C1579.91 699.45 1567.46 701.4 1553.66 701.4ZM1740.92 696V452.55H1789.52V501.6L1785.02 494.4C1790.42 478.5 1799.12 467.1 1811.12 460.2C1823.12 453 1837.52 449.4 1854.32 449.4H1869.17V495.75H1848.02C1831.22 495.75 1817.57 501 1807.07 511.5C1796.87 521.7 1791.77 536.4 1791.77 555.6V696H1740.92ZM2016.46 701.4C1993.06 701.4 1972.06 695.85 1953.46 684.75C1935.16 673.35 1920.61 658.05 1909.81 638.85C1899.31 619.65 1894.06 598.05 1894.06 574.05C1894.06 550.05 1899.46 528.45 1910.26 509.25C1921.06 490.05 1935.61 474.9 1953.91 463.8C1972.21 452.7 1992.91 447.15 2016.01 447.15C2035.51 447.15 2052.76 451.05 2067.76 458.85C2082.76 466.65 2094.61 477.45 2103.31 491.25L2095.66 502.95V355.35H2146.06V696H2097.91V646.5L2103.76 655.95C2095.36 670.65 2083.36 681.9 2067.76 689.7C2052.16 697.5 2035.06 701.4 2016.46 701.4ZM2021.41 654.15C2035.51 654.15 2048.11 650.7 2059.21 643.8C2070.61 636.9 2079.46 627.45 2085.76 615.45C2092.36 603.15 2095.66 589.35 2095.66 574.05C2095.66 558.75 2092.36 545.1 2085.76 533.1C2079.46 521.1 2070.61 511.65 2059.21 504.75C2048.11 497.85 2035.51 494.4 2021.41 494.4C2007.31 494.4 1994.56 497.85 1983.16 504.75C1971.76 511.65 1962.91 521.1 1956.61 533.1C1950.31 545.1 1947.16 558.75 1947.16 574.05C1947.16 589.35 1950.31 603.15 1956.61 615.45C1962.91 627.45 1971.61 636.9 1982.71 643.8C1994.11 650.7 2007.01 654.15 2021.41 654.15ZM2278.32 701.4C2261.82 701.4 2247.27 698.55 2234.67 692.85C2222.37 686.85 2212.77 678.75 2205.87 668.55C2198.97 658.05 2195.52 645.75 2195.52 631.65C2195.52 618.45 2198.37 606.6 2204.07 596.1C2210.07 585.6 2219.22 576.75 2231.52 569.55C2243.82 562.35 2259.27 557.25 2277.87 554.25L2362.47 540.3V580.35L2287.77 593.4C2274.27 595.8 2264.37 600.15 2258.07 606.45C2251.77 612.45 2248.62 620.25 2248.62 629.85C2248.62 639.15 2252.07 646.8 2258.97 652.8C2266.17 658.5 2275.32 661.35 2286.42 661.35C2300.22 661.35 2312.22 658.35 2322.42 652.35C2332.92 646.35 2341.02 638.4 2346.72 628.5C2352.42 618.3 2355.27 607.05 2355.27 594.75V532.2C2355.27 520.2 2350.77 510.45 2341.77 502.95C2333.07 495.15 2321.37 491.25 2306.67 491.25C2293.17 491.25 2281.32 494.85 2271.12 502.05C2261.22 508.95 2253.87 517.95 2249.07 529.05L2206.77 507.9C2211.27 495.9 2218.62 485.4 2228.82 476.4C2239.02 467.1 2250.87 459.9 2264.37 454.8C2278.17 449.7 2292.72 447.15 2308.02 447.15C2327.22 447.15 2344.17 450.75 2358.87 457.95C2373.87 465.15 2385.42 475.2 2393.52 488.1C2401.92 500.7 2406.12 515.4 2406.12 532.2V696H2357.52V651.9L2367.87 653.25C2362.17 663.15 2354.82 671.7 2345.82 678.9C2337.12 686.1 2327.07 691.65 2315.67 695.55C2304.57 699.45 2292.12 701.4 2278.32 701.4Z" fill="#15255B"/>
<path d="M2626.68 701.4C2602.98 701.4 2580.93 697.05 2560.53 688.35C2540.43 679.65 2522.88 667.65 2507.88 652.35C2493.18 636.75 2481.63 618.45 2473.23 597.45C2464.83 576.45 2460.63 553.35 2460.63 528.15C2460.63 503.25 2464.68 480.3 2472.78 459.3C2481.18 438 2492.88 419.7 2507.88 404.4C2522.88 388.8 2540.43 376.8 2560.53 368.4C2580.63 359.7 2602.68 355.35 2626.68 355.35C2650.38 355.35 2671.53 359.4 2690.13 367.5C2709.03 375.6 2724.93 386.25 2737.83 399.45C2750.73 412.35 2760.03 426.45 2765.73 441.75L2718.03 464.25C2710.83 446.25 2699.28 431.7 2683.38 420.6C2667.78 409.2 2648.88 403.5 2626.68 403.5C2604.48 403.5 2584.83 408.75 2567.73 419.25C2550.63 429.75 2537.28 444.3 2527.68 462.9C2518.38 481.5 2513.73 503.25 2513.73 528.15C2513.73 553.05 2518.38 574.95 2527.68 593.85C2537.28 612.45 2550.63 627 2567.73 637.5C2584.83 647.7 2604.48 652.8 2626.68 652.8C2648.88 652.8 2667.78 647.25 2683.38 636.15C2699.28 625.05 2710.83 610.5 2718.03 592.5L2765.73 615C2760.03 630 2750.73 644.1 2737.83 657.3C2724.93 670.5 2709.03 681.15 2690.13 689.25C2671.53 697.35 2650.38 701.4 2626.68 701.4ZM2815.38 696V355.35H2866.23V500.25L2858.13 493.95C2864.13 478.65 2873.73 467.1 2886.93 459.3C2900.13 451.2 2915.43 447.15 2932.83 447.15C2950.83 447.15 2966.73 451.05 2980.53 458.85C2994.33 466.65 3005.13 477.45 3012.93 491.25C3020.73 505.05 3024.63 520.8 3024.63 538.5V696H2974.23V552.45C2974.23 540.15 2971.83 529.8 2967.03 521.4C2962.53 512.7 2956.23 506.1 2948.13 501.6C2940.03 496.8 2930.73 494.4 2920.23 494.4C2910.03 494.4 2900.73 496.8 2892.33 501.6C2884.23 506.1 2877.78 512.7 2872.98 521.4C2868.48 530.1 2866.23 540.45 2866.23 552.45V696H2815.38ZM3151.96 701.4C3135.46 701.4 3120.91 698.55 3108.31 692.85C3096.01 686.85 3086.41 678.75 3079.51 668.55C3072.61 658.05 3069.16 645.75 3069.16 631.65C3069.16 618.45 3072.01 606.6 3077.71 596.1C3083.71 585.6 3092.86 576.75 3105.16 569.55C3117.46 562.35 3132.91 557.25 3151.51 554.25L3236.11 540.3V580.35L3161.41 593.4C3147.91 595.8 3138.01 600.15 3131.71 606.45C3125.41 612.45 3122.26 620.25 3122.26 629.85C3122.26 639.15 3125.71 646.8 3132.61 652.8C3139.81 658.5 3148.96 661.35 3160.06 661.35C3173.86 661.35 3185.86 658.35 3196.06 652.35C3206.56 646.35 3214.66 638.4 3220.36 628.5C3226.06 618.3 3228.91 607.05 3228.91 594.75V532.2C3228.91 520.2 3224.41 510.45 3215.41 502.95C3206.71 495.15 3195.01 491.25 3180.31 491.25C3166.81 491.25 3154.96 494.85 3144.76 502.05C3134.86 508.95 3127.51 517.95 3122.71 529.05L3080.41 507.9C3084.91 495.9 3092.26 485.4 3102.46 476.4C3112.66 467.1 3124.51 459.9 3138.01 454.8C3151.81 449.7 3166.36 447.15 3181.66 447.15C3200.86 447.15 3217.81 450.75 3232.51 457.95C3247.51 465.15 3259.06 475.2 3267.16 488.1C3275.56 500.7 3279.76 515.4 3279.76 532.2V696H3231.16V651.9L3241.51 653.25C3235.81 663.15 3228.46 671.7 3219.46 678.9C3210.76 686.1 3200.71 691.65 3189.31 695.55C3178.21 699.45 3165.76 701.4 3151.96 701.4ZM3339.21 696V452.55H3390.06V696H3339.21ZM3339.21 419.25V360.75H3390.06V419.25H3339.21ZM3449.51 696V452.55H3498.11V500.25L3492.26 493.95C3498.26 478.65 3507.86 467.1 3521.06 459.3C3534.26 451.2 3549.56 447.15 3566.96 447.15C3584.96 447.15 3600.86 451.05 3614.66 458.85C3628.46 466.65 3639.26 477.45 3647.06 491.25C3654.86 505.05 3658.76 520.95 3658.76 538.95V696H3608.36V552.45C3608.36 540.15 3606.11 529.8 3601.61 521.4C3597.11 512.7 3590.66 506.1 3582.26 501.6C3574.16 496.8 3564.86 494.4 3554.36 494.4C3543.86 494.4 3534.41 496.8 3526.01 501.6C3517.91 506.1 3511.61 512.7 3507.11 521.4C3502.61 530.1 3500.36 540.45 3500.36 552.45V696H3449.51Z" fill="#CA252E"/>
<defs>
<linearGradient id="paint0_linear_1_1496" x1="928" y1="651" x2="451" y2="607.5" gradientUnits="userSpaceOnUse">
<stop stop-color="#84151B"/>
<stop offset="1" stop-color="#CA252E"/>
</linearGradient>
<radialGradient id="paint1_radial_1_1496" cx="0" cy="0" r="1" gradientTransform="matrix(-297.5 376.5 -206.438 -112.321 332.5 602.5)" gradientUnits="userSpaceOnUse">
<stop stop-color="#153057"/>
<stop offset="1" stop-color="#80ABD8"/>
</radialGradient>
</defs>
</svg>
